<svg width="152" height="152" viewBox="0 0 152 152" fill="none" xmlns="http://www.w3.org/2000/svg">
<g id="Illustration - It Girl">
<g clip-path="url(#clip0_376_1429)">
<g id="Clip path group">
<mask id="mask0_376_1429" style="mask-type:luminance" maskUnits="userSpaceOnUse" x="-1" y="0" width="153" height="153">
<g id="clip0_1_1114">
<path id="Vector" d="M151.992 0.00195312H-0.0078125V152.002H151.992V0.00195312Z" fill="white"/>
</g>
</mask>
<g mask="url(#mask0_376_1429)">
<g id="It Girl">
<path id="BG" d="M151.992 0.00195312H-0.0078125V152.002H151.992V0.00195312Z" fill="#747D7A"/>
<g id="Group 8">
<path id="SHAPE 1" opacity="0.34" d="M125.628 124.326H31.5095C30.3087 124.326 29.3359 123.353 29.3359 122.152C29.3359 120.951 30.3087 119.979 31.5095 119.979H125.628C126.829 119.979 127.802 120.951 127.802 122.152C127.802 123.353 126.829 124.326 125.628 124.326Z" fill="black"/>
<path id="SHAPE 28" d="M132.537 95.6877H113.401C111.455 95.6877 109.874 94.1069 109.874 92.1613C109.874 90.2157 111.455 88.6349 113.401 88.6349H124.086C126.397 88.6349 128.266 86.7653 128.266 84.4549C128.266 82.1445 126.397 80.2749 124.086 80.2749H114.586C111.987 80.2749 109.874 78.1621 109.874 75.5629C109.874 72.9637 111.987 70.8509 114.586 70.8509H125.15C127.461 70.8509 129.345 68.9661 129.345 66.6557C129.345 64.3453 127.461 62.4605 125.15 62.4605H109.889H106.241C103.931 62.4605 102.046 60.5757 102.046 58.2653C102.046 55.9549 103.931 54.0701 106.241 54.0701H110.376C112.686 54.0701 114.571 52.1853 114.571 49.8749C114.571 47.5645 112.686 45.6797 110.376 45.6797H108.02H107.625H82.651H81.7999H55.7166H49.743C47.4326 45.6797 45.5478 47.5645 45.5478 49.8749C45.5478 52.1853 47.4326 54.0701 49.743 54.0701H51.5214C53.8318 54.0701 55.7166 55.9549 55.7166 58.2653C55.7166 60.5757 53.8318 62.4605 51.5214 62.4605H35.5158C33.7374 62.4605 32.2934 63.9045 32.2934 65.6829C32.2934 67.4613 33.7374 68.9053 35.5158 68.9053H52.3726C54.227 68.9053 55.7318 70.4101 55.7318 72.2645C55.7318 74.1189 54.227 75.6237 52.3726 75.6237H25.4686C23.1582 75.6237 21.2734 77.5085 21.2734 79.8189C21.2734 82.1293 23.1582 84.0141 25.4686 84.0141H51.5214C53.8318 84.0141 55.7166 85.8989 55.7166 88.2093C55.7166 90.5197 53.8318 92.4045 51.5214 92.4045H35.7894C32.0806 92.4045 29.071 95.4141 29.071 99.1229C29.071 102.832 32.0806 105.841 35.7894 105.841H55.7166H64.563H69.5334H109.889H132.537C135.334 105.841 137.599 103.576 137.599 100.78C137.599 97.9525 135.334 95.6877 132.537 95.6877Z" fill="#65706C"/>
<path id="SHAPE 114" d="M97.0391 122.154H99.7751V80.9922H97.0391V122.154Z" fill="#2F262D"/>
<path id="SHAPE 85" d="M86.6316 89.2875C86.1908 88.2995 86.6316 87.1291 87.6348 86.6731C87.8932 86.5667 88.1668 86.5059 88.4404 86.5059C89.2156 86.5059 89.93 86.9619 90.2492 87.6763L99.9772 109.595L96.3596 111.206L86.6316 89.2875Z" fill="#FC9F6F"/>
<path id="SHAPE 7" d="M70.3516 122.154H73.0876V80.9922H70.3516V122.154Z" fill="#2F262D"/>
<path id="SHAPE 80" d="M83.0062 83.6774C73.5974 83.6774 65.9822 76.503 65.9822 67.6718C65.9822 65.3918 66.499 63.2182 67.411 61.2422C61.4222 63.7198 57.2422 69.359 57.2422 75.895C57.2422 84.7414 64.8574 91.9006 74.2662 91.9006C81.243 91.9006 87.2318 87.9638 89.8614 82.3246C87.7486 83.191 85.4382 83.6774 83.0062 83.6774Z" fill="#F2F2F2"/>
<path id="SHAPE 15" d="M73.5832 88.0117C78.7292 88.0117 82.9008 84.1804 82.9008 79.4541C82.9008 74.7279 78.7292 70.8965 73.5832 70.8965C68.4373 70.8965 64.2656 74.7279 64.2656 79.4541C64.2656 84.1804 68.4373 88.0117 73.5832 88.0117Z" fill="#3B323A"/>
<path id="SHAPE 4" d="M56.8144 80.9884H35.9753C35.1849 80.9884 34.5312 80.3348 34.5312 79.5444V78.1764C34.5312 77.386 35.1849 76.7324 35.9753 76.7324H56.8144C57.6049 76.7324 58.2584 77.386 58.2584 78.1764V79.5444C58.2584 80.3348 57.6049 80.9884 56.8144 80.9884Z" fill="#AFAFAF"/>
<path id="SHAPE 19" d="M81.6642 72.9342C78.7458 72.9342 76.3746 70.563 76.3746 67.6446V62.355C76.3746 60.3334 74.7482 58.707 72.7266 58.707V67.6446C72.7266 72.5846 76.7242 76.5822 81.6642 76.5822H89.0666V72.9342H81.6642Z" fill="#EF9067"/>
<path id="SHAPE 8" d="M82.8696 45.0113C82.3224 51.9273 76.2424 59.5881 70.5576 58.6153C65.116 57.6881 61.3768 49.1001 63.216 43.0809C64.356 39.3721 67.4872 37.0465 70.0104 35.1769C72.6248 33.2313 74.388 31.9241 76.3944 32.2433C80.3768 32.8513 83.3104 39.5089 82.8696 45.0113Z" fill="#603936"/>
<path id="SHAPE 30" d="M75.1999 64.6946C75.0935 64.573 74.2422 63.585 74.0902 63.4482C73.695 61.8218 72.8895 60.0282 73.0567 57.9306C71.9167 57.0946 70.0319 56.0306 67.8887 56.1826C67.2503 56.2282 66.5814 56.3802 66.247 56.4562C64.3926 56.8818 63.2223 57.5658 62.8423 57.7938C62.3255 58.113 62.067 58.265 61.763 58.569C60.9422 59.4202 60.7447 60.4538 60.6383 61.0618C59.7263 66.3514 60.4407 71.4282 60.5319 71.869C60.6991 72.6746 60.927 73.389 60.927 73.389C61.307 74.5898 61.7631 75.3346 61.8847 75.669C62.4927 77.3106 63.8758 80.761 65.335 83.3906C66.399 83.5578 68.8159 84.6218 70.4119 84.0746C72.8439 83.2386 77.8598 81.369 79.6534 80.989C77.419 78.481 75.367 75.6842 74.835 72.2794C74.6982 71.3978 74.5766 70.5314 74.4854 69.6802C74.6982 69.5738 75.9903 68.9202 76.2486 67.613C76.5222 66.1994 75.4127 64.9378 75.1999 64.6946Z" fill="#F05364"/>
<path id="SHAPE 48" d="M69.7113 61.4869C71.0373 61.117 71.7631 59.5653 71.3325 58.021C70.9019 56.4765 69.4776 55.5244 68.1516 55.8942C66.8255 56.2638 66.0998 57.8156 66.5304 59.3601C66.961 60.9044 68.3852 61.8567 69.7113 61.4869Z" fill="#EF9067"/>
<path id="SHAPE 20" d="M68.5391 55.2394C69.3751 57.2154 70.7583 57.8994 71.6399 58.4162C73.3575 59.4194 76.5799 59.3282 76.5799 59.3282C76.6863 58.629 76.7927 58.021 77.3399 56.8658C78.1303 55.1482 78.8599 54.7378 79.8783 53.1874C81.3983 50.8466 82.1583 48.0194 81.6719 47.7458C81.3223 47.533 80.3647 48.6274 79.7415 49.2658C77.9631 51.0898 73.9807 53.7954 68.5391 55.2394Z" fill="#603936"/>
<path id="SHAPE 10" d="M68.4663 59.5871H67.8279C66.4295 59.5871 65.3047 58.4623 65.3047 57.0639V47.4727H70.3511V57.6871C70.3511 58.7359 69.4999 59.5871 68.4663 59.5871Z" fill="#EF9067"/>
<path id="SHAPE 5" d="M40.0625 122.154H42.7985V80.9922H40.0625V122.154Z" fill="#2F262D"/>
<path id="SHAPE 96" d="M56.8828 122.154H59.6188V80.9922H56.8828V122.154Z" fill="#494149"/>
<path id="SHAPE 102" d="M113.492 122.154H116.228V80.9922H113.492V122.154Z" fill="#494149"/>
<path id="SHAPE 27" opacity="0.71" d="M65.3047 48.4925C65.6391 51.3957 67.6455 53.7973 70.3511 54.7093V46.8965H65.3047V48.4925Z" fill="#D36B46"/>
<path id="SHAPE 6" d="M72.7266 54.3263C69.0178 54.3263 66.0234 51.3319 66.0234 47.6231V39.4455C66.0234 39.0959 66.297 38.8223 66.6466 38.8223H76.177C77.9706 38.8223 79.4298 40.2815 79.4298 42.0751V47.6231C79.4298 51.3319 76.4354 54.3263 72.7266 54.3263Z" fill="#FC9F6F"/>
<path id="SHAPE 29" d="M79.4249 46.6655C79.3489 46.8479 79.1665 46.9695 78.9689 46.9695H76.0201C75.7465 46.9695 75.5185 46.7415 75.5185 46.4679V44.8111C75.5185 44.5375 75.7465 44.3095 76.0201 44.3095H78.9689C79.1665 44.3095 79.3489 44.4311 79.4249 44.6135V43.9751C79.2881 43.8991 79.1361 43.8535 78.9689 43.8535H76.0201C75.4881 43.8535 75.0625 44.2791 75.0625 44.8111V46.4679C75.0625 46.9999 75.4881 47.4255 76.0201 47.4255H78.9689C79.1361 47.4255 79.2881 47.3799 79.4249 47.3039V46.6655Z" fill="#DD9883"/>
<path id="SHAPE 13" d="M73.4909 47.1844H70.5421C70.1317 47.1844 69.8125 46.85 69.8125 46.4548V44.798C69.8125 44.3876 70.1469 44.0684 70.5421 44.0684H73.4909C73.9013 44.0684 74.2205 44.4028 74.2205 44.798V46.4548C74.2205 46.8652 73.8861 47.1844 73.4909 47.1844Z" stroke="#DD9883" stroke-width="0.540837" stroke-miterlimit="10" stroke-linecap="round" stroke-linejoin="round"/>
<path id="SHAPE 36" opacity="0.6" d="M70.1882 48.8994V40.7218C70.1882 40.3722 70.4618 40.0986 70.8114 40.0986L76.3138 38.1682C75.721 37.393 77.2258 38.837 76.177 38.837H66.6466C66.297 38.837 66.0234 39.1106 66.0234 39.4602V47.6378C66.0234 51.3466 69.0178 54.341 72.7266 54.341C72.8026 54.341 72.8786 54.341 72.9698 54.341C71.2826 53.1098 70.1882 51.1338 70.1882 48.8994Z" fill="#EF9067"/>
<path id="SHAPE 14" d="M78.9675 46.8797H76.0187C75.6083 46.8797 75.2891 46.5453 75.2891 46.1501V44.4933C75.2891 44.0829 75.6235 43.7637 76.0187 43.7637H78.9675C79.3779 43.7637 79.6971 44.0981 79.6971 44.4933V46.1501C79.6971 46.5605 79.3627 46.8797 78.9675 46.8797Z" stroke="#F6CDF7" stroke-width="0.540837" stroke-miterlimit="10" stroke-linecap="round" stroke-linejoin="round"/>
<path id="SHAPE 17" d="M74.4649 50.9532C73.6137 50.9532 72.9297 50.2692 72.9297 49.4332V48.7188H75.9697V49.4332C75.9697 50.2692 75.3009 50.9532 74.4649 50.9532Z" fill="#FCFAFA"/>
<path id="SHAPE 11" d="M71.7266 45.1309H73.0946" stroke="#161515" stroke-width="0.540837" stroke-miterlimit="10" stroke-linecap="round" stroke-linejoin="round"/>
<path id="SHAPE 22" d="M76.8906 45.1309H78.2586" stroke="#161515" stroke-width="0.540837" stroke-miterlimit="10" stroke-linecap="round" stroke-linejoin="round"/>
<path id="SHAPE 9" d="M73.4909 46.8797H70.5421C70.1317 46.8797 69.8125 46.5453 69.8125 46.1501V44.4933C69.8125 44.0829 70.1469 43.7637 70.5421 43.7637H73.4909C73.9013 43.7637 74.2205 44.0981 74.2205 44.4933V46.1501C74.2205 46.5605 73.8861 46.8797 73.4909 46.8797Z" stroke="#F6CDF7" stroke-width="0.540837" stroke-miterlimit="10" stroke-linecap="round" stroke-linejoin="round"/>
<path id="SHAPE 23" d="M75.5352 32.6678C73.696 30.2966 70.5648 30.3422 69.9872 30.2814C69.4704 30.175 66.628 30.3118 64.5456 30.859C59.7424 32.1358 56.3984 36.483 56.3984 41.4686V47.8526C56.3984 52.139 59.56 57.3374 63.6184 58.6902C65.868 59.4502 68.3608 60.0278 68.9536 59.9366C65.944 54.3582 66.3544 51.0598 67.2056 49.1294C69.2424 44.4174 75.216 44.5846 76.6904 39.3406C76.7208 39.1886 77.648 35.4038 75.5352 32.6678Z" fill="#754743"/>
<path id="SHAPE 32" d="M94.2867 76.5366C94.4387 76.1414 94.5147 75.7158 94.5147 75.275C94.5147 73.2534 92.8884 71.627 90.8667 71.627C88.8451 71.627 87.2188 73.2534 87.2188 75.275C87.2188 75.7158 87.2947 76.1414 87.4467 76.5366H94.2867Z" fill="#EF9067"/>
<path id="SHAPE 42" d="M82.5786 76.7339C82.2746 75.3355 80.5874 74.2715 78.5354 74.2715C76.4986 74.2715 74.7962 75.3355 74.4922 76.7339H82.5786Z" fill="#F4EFF0"/>
<path id="SHAPE 16" d="M62.5786 66.0925C63.8042 66.0925 64.7978 64.534 64.7978 62.6117C64.7978 60.6893 63.8042 59.1309 62.5786 59.1309C61.353 59.1309 60.3594 60.6893 60.3594 62.6117C60.3594 64.534 61.353 66.0925 62.5786 66.0925Z" fill="#EF9067"/>
<path id="SHAPE 24" d="M69.297 73.056C66.3786 73.056 64.0074 70.6848 64.0074 67.7664V61.3064C64.0074 60.3032 63.1866 59.4824 62.1834 59.4824C61.1802 59.4824 60.3594 60.3032 60.3594 61.3064V67.7664C60.3594 72.7064 64.357 76.704 69.297 76.704H76.6994V73.056H72.9906H69.297Z" fill="#FC9F6F"/>
<path id="SHAPE 33" d="M100.021 76.7318H82.9968C82.784 76.7318 82.6016 76.5494 82.6016 76.3366C82.6016 76.1238 82.784 75.9414 82.9968 75.9414H100.036C100.249 75.9414 100.431 76.1238 100.431 76.3366C100.431 76.5494 100.249 76.7318 100.021 76.7318Z" fill="white"/>
<path id="SHAPE 76" d="M100.013 76.3363H82.9885C82.8365 76.3363 82.7149 76.2603 82.6389 76.1387C82.6085 76.1995 82.5781 76.2603 82.5781 76.3363C82.5781 76.5491 82.7605 76.7315 82.9733 76.7315H100.013C100.225 76.7315 100.408 76.5491 100.408 76.3363C100.408 76.2603 100.393 76.1995 100.347 76.1387C100.286 76.2451 100.165 76.3363 100.013 76.3363Z" fill="#F4EFF0"/>
<path id="SHAPE 70" d="M86.2952 76.7318H82.9968C82.784 76.7318 82.6016 76.5494 82.6016 76.3366C82.6016 76.1238 82.784 75.9414 82.9968 75.9414H86.2952C86.508 75.9414 86.6904 76.1238 86.6904 76.3366C86.6904 76.5494 86.5232 76.7318 86.2952 76.7318Z" fill="#F4EFF0"/>
<g id="SHAPE 37">
<g id="SHAPE 148">
<path id="SHAPE 150" d="M98.8089 75.9389H97.5625V75.6501C97.5625 75.4981 97.6841 75.3613 97.8513 75.3613H98.5201C98.6721 75.3613 98.8089 75.4829 98.8089 75.6501V75.9389Z" fill="#F4EFF0"/>
</g>
<g id="SHAPE 145">
<path id="SHAPE 147" d="M97.3011 75.9389H96.0547V75.6501C96.0547 75.4981 96.1763 75.3613 96.3435 75.3613H97.0123C97.1643 75.3613 97.3011 75.4829 97.3011 75.6501V75.9389Z" fill="#F4EFF0"/>
</g>
<g id="SHAPE 142">
<path id="SHAPE 144" d="M95.8011 75.9389H94.5547V75.6501C94.5547 75.4981 94.6763 75.3613 94.8435 75.3613H95.5123C95.6643 75.3613 95.8011 75.4829 95.8011 75.6501V75.9389Z" fill="#F4EFF0"/>
</g>
<g id="SHAPE 139">
<path id="SHAPE 141" d="M94.262 75.9389H93.0156V75.6501C93.0156 75.4981 93.1372 75.3613 93.3044 75.3613H93.9732C94.1252 75.3613 94.262 75.4829 94.262 75.6501V75.9389Z" fill="#F4EFF0"/>
</g>
<g id="SHAPE 136">
<path id="SHAPE 138" d="M92.7308 75.9389H91.4844V75.6501C91.4844 75.4981 91.606 75.3613 91.7732 75.3613H92.442C92.594 75.3613 92.7308 75.4829 92.7308 75.6501V75.9389Z" fill="#F4EFF0"/>
</g>
<g id="SHAPE 133">
<path id="SHAPE 135" d="M91.223 75.9389H89.9766V75.6501C89.9766 75.4981 90.0982 75.3613 90.2654 75.3613H90.9342C91.0862 75.3613 91.223 75.4829 91.223 75.6501V75.9389Z" fill="#F4EFF0"/>
</g>
<g id="SHAPE 130">
<path id="SHAPE 132" d="M89.6995 75.9389H88.4531V75.6501C88.4531 75.4981 88.5747 75.3613 88.7419 75.3613H89.4107C89.5627 75.3613 89.6995 75.4829 89.6995 75.6501V75.9389Z" fill="#F4EFF0"/>
</g>
<g id="SHAPE 127">
<path id="SHAPE 129" d="M88.1917 75.9389H86.9453V75.6501C86.9453 75.4981 87.0669 75.3613 87.2341 75.3613H87.9029C88.0549 75.3613 88.1917 75.4829 88.1917 75.6501V75.9389Z" fill="#F4EFF0"/>
</g>
<g id="SHAPE 124">
<path id="SHAPE 126" d="M86.6839 75.9389H85.4375V75.6501C85.4375 75.4981 85.5591 75.3613 85.7263 75.3613H86.3951C86.5471 75.3613 86.6839 75.4829 86.6839 75.6501V75.9389Z" fill="#F4EFF0"/>
</g>
<g id="SHAPE 121">
<path id="SHAPE 123" d="M85.1448 75.9389H83.8984V75.6501C83.8984 75.4981 84.02 75.3613 84.1872 75.3613H84.856C85.008 75.3613 85.1448 75.4829 85.1448 75.6501V75.9389Z" fill="#F4EFF0"/>
</g>
</g>
<path id="SHAPE 74" d="M82.9885 76.735H86.2869C86.4997 76.735 86.6821 76.5526 86.6821 76.3398H82.5781C82.5781 76.5526 82.7605 76.735 82.9885 76.735Z" fill="#E2E2E2"/>
<path id="SHAPE 71" d="M84.4738 89.0754H72.4506L72.3594 82.6914H87.2554C88.2586 82.6914 89.0642 83.497 89.0642 84.5002C89.049 87.0386 86.997 89.0754 84.4738 89.0754Z" fill="#352934"/>
<path id="SHAPE 100" d="M74.8047 112.224L82.1767 87.2964C82.4199 86.4604 83.1951 85.8828 84.0767 85.8828C84.2591 85.8828 84.4567 85.9132 84.6391 85.9588C85.6879 86.2628 86.2807 87.3724 85.9767 88.4212L78.6047 113.349L74.8047 112.224Z" fill="#EF9067"/>
<path id="SHAPE 72" d="M80.9303 110.188L74.8047 108.379L82.5263 82.2806C83.0279 80.5934 84.8063 79.6206 86.4935 80.1222C88.1807 80.6238 89.1535 82.4022 88.6519 84.0894L80.9303 110.188Z" fill="#352934"/>
<g id="SHAPE 31">
<path id="SHAPE 25" d="M111.354 69.3433H85.8183C85.3167 69.3433 84.9062 68.9329 84.9062 68.4313L88.0678 50.1913C88.0678 49.6897 88.4782 49.2793 88.9798 49.2793H114.516C115.017 49.2793 115.428 49.6897 115.428 50.1913L112.266 68.4313C112.266 68.9329 111.871 69.3433 111.354 69.3433Z" fill="#CECECE"/>
<path id="SHAPE 26" d="M112.87 69.3433H87.3339C86.8323 69.3433 86.4219 68.9329 86.4219 68.4313L89.5835 50.1913C89.5835 49.6897 89.9939 49.2793 90.4955 49.2793H116.031C116.533 49.2793 116.943 49.6897 116.943 50.1913L113.782 68.4313C113.782 68.9329 113.387 69.3433 112.87 69.3433Z" fill="#F4EFF0"/>
<path id="SHAPE 41" d="M105.074 75.74L102.976 65.1152H99.2371C98.7811 65.1152 98.4315 65.5408 98.5227 65.9816L100.377 75.36C100.453 75.7096 100.18 76.0288 99.8299 76.0288H97.5499C97.1395 76.0288 96.8203 76.3632 96.8203 76.7584H100.651H104.208C104.77 76.7736 105.18 76.272 105.074 75.74Z" fill="#CECECE"/>
<path id="SHAPE 34" d="M105.271 76.7741H101.395L99.1458 65.3741C99.1154 65.2373 99.2218 65.1309 99.3586 65.1309H103.721L105.879 76.0597C105.94 76.4245 105.651 76.7741 105.271 76.7741Z" fill="#F4EFF0"/>
<path id="SHAPE 38" d="M100.666 76.7758H101.396L101.198 75.7422H100.453L100.666 76.7758Z" fill="#F4EFF0"/>
<path id="SHAPE 35" d="M100.672 76.7758C101.052 76.7758 101.34 76.4262 101.264 76.0462L101.204 75.7422H100.383L100.672 76.7758Z" fill="#CECECE"/>
<path id="SHAPE 69" d="M104.013 59.6752C103.192 59.6752 102.523 59.0064 102.523 58.1856C102.523 57.912 102.599 57.6688 102.721 57.456C102.508 57.3952 102.28 57.3496 102.037 57.3496C100.745 57.3496 99.7109 58.3984 99.7109 59.6752C99.7109 60.952 100.76 62.0008 102.037 62.0008C103.329 62.0008 104.362 60.952 104.362 59.6752C104.362 59.66 104.362 59.6448 104.362 59.6296C104.241 59.66 104.134 59.6752 104.013 59.6752Z" fill="#CECECE"/>
</g>
<path id="SHAPE 66" d="M86.3415 85.5958L73.8167 88.8942C70.4119 89.791 66.9615 87.3742 65.3047 83.3766L84.7151 79.4094C86.4175 78.9686 88.1655 79.987 88.6063 81.6894C89.0623 83.407 88.0439 85.155 86.3415 85.5958Z" fill="#3B323A"/>
<path id="SHAPE 68" d="M98.9422 104.592L93.1054 107.191L82.8758 84.178C82.1614 82.5668 82.891 80.682 84.5022 79.9676C86.1134 79.2532 87.9982 79.9828 88.7126 81.594L98.9422 104.592Z" fill="#3B323A"/>
<path id="SHAPE 2" d="M55.5456 80.9884H120.632C121.422 80.9884 122.076 80.3348 122.076 79.5444V78.1764C122.076 77.386 121.422 76.7324 120.632 76.7324H55.5456C54.7552 76.7324 54.1016 77.386 54.1016 78.1764V79.5444C54.1016 80.3348 54.74 80.9884 55.5456 80.9884Z" fill="#F2F2F2"/>
<path id="SHAPE 73" d="M108.461 111.997L95.5254 114.353C95.0238 114.444 94.5526 114.125 94.4462 113.654L94.355 113.244C94.0966 112.058 94.8566 110.857 96.103 110.538L105.527 108.152C107.351 107.696 109.19 108.532 109.525 110.067L109.646 110.614C109.783 111.237 109.251 111.86 108.461 111.997Z" fill="#535452"/>
<path id="SHAPE 95" d="M108.96 110.827L94.5053 113.456C94.4749 113.456 94.4445 113.472 94.4141 113.472L94.4597 113.654C94.5661 114.14 95.0373 114.444 95.5389 114.353L108.474 111.997C109.264 111.86 109.812 111.237 109.675 110.614L109.66 110.568C109.447 110.69 109.219 110.781 108.96 110.827Z" fill="#FFFDFD"/>
<path id="SHAPE 89" d="M81.7593 120.127L70.9521 112.649C70.5417 112.36 70.4201 111.798 70.6937 111.387L70.9217 111.022C71.5753 110.004 72.9737 109.685 74.0681 110.354L82.4129 115.339C84.0393 116.312 84.7385 118.212 83.8873 119.519L83.5833 119.99C83.2489 120.522 82.4129 120.583 81.7593 120.127Z" fill="#424441"/>
<path id="SHAPE 87" d="M82.9382 119.657L70.8542 111.297C70.8238 111.282 70.8086 111.252 70.7782 111.236L70.687 111.388C70.4286 111.799 70.535 112.361 70.9454 112.65L81.7526 120.128C82.4062 120.584 83.2422 120.524 83.5766 119.992L83.607 119.946C83.379 119.9 83.151 119.794 82.9382 119.657Z" fill="#CECECE"/>
<path id="SHAPE 86" d="M51.8288 76.7317H49.3664C48.12 76.7317 47.1016 75.7133 47.1016 74.4669V67.7637H54.0936V74.4669C54.1088 75.7133 53.0904 76.7317 51.8288 76.7317Z" fill="#FF6161"/>
<path id="SHAPE 112" d="M47.8867 68.6738C46.2603 68.6738 44.9531 69.9962 44.9531 71.6074C44.9531 73.2186 46.2755 74.541 47.8867 74.541C49.4979 74.541 50.8203 73.2186 50.8203 71.6074C50.8203 69.9962 49.4979 68.6738 47.8867 68.6738ZM47.8867 73.9026C46.6251 73.9026 45.5915 72.869 45.5915 71.6074C45.5915 70.3458 46.6251 69.3122 47.8867 69.3122C49.1483 69.3122 50.1819 70.3458 50.1819 71.6074C50.1667 72.8842 49.1483 73.9026 47.8867 73.9026Z" fill="#F4A36C"/>
<path id="SHAPE 97" d="M51.8288 76.7317H49.3664C48.12 76.7317 47.1016 75.7133 47.1016 74.4669V67.7637H54.0936V74.4669C54.1088 75.7133 53.0904 76.7317 51.8288 76.7317Z" fill="#F7BC8B"/>
<path id="SHAPE 108" d="M50.4152 74.6037C49.716 74.6037 49.1536 74.0413 49.1536 73.3421V67.7637H47.1016V74.4669C47.1016 75.7133 48.12 76.7317 49.3664 76.7317H51.8288C53.0296 76.7317 54.0176 75.7893 54.0936 74.6037H50.4152Z" fill="#EFA573"/>
<path id="SHAPE 18" d="M79.3883 76.7338C79.5403 76.3386 79.6163 75.913 79.6163 75.4722C79.6163 73.4506 77.9899 71.8242 75.9683 71.8242C73.9467 71.8242 72.3203 73.4506 72.3203 75.4722C72.3203 75.913 72.3963 76.3386 72.5483 76.7338H79.3883Z" fill="#FC9F6F"/>
<path id="SHAPE 12" opacity="0.77" d="M49.8318 66.5483C50.3774 66.5483 50.8198 66.1059 50.8198 65.5603C50.8198 65.0146 50.3774 64.5723 49.8318 64.5723C49.2861 64.5723 48.8438 65.0146 48.8438 65.5603C48.8438 66.1059 49.2861 66.5483 49.8318 66.5483Z" fill="#F2F2F2"/>
<path id="SHAPE 43" opacity="0.77" d="M51.6541 63.5855C52.4683 63.5855 53.1285 62.9255 53.1285 62.1111C53.1285 61.2969 52.4683 60.6367 51.6541 60.6367C50.8398 60.6367 50.1797 61.2969 50.1797 62.1111C50.1797 62.9255 50.8398 63.5855 51.6541 63.5855Z" fill="#F2F2F2"/>
<path id="SHAPE 45" d="M37.2343 54.0701C39.5512 54.0701 41.4295 52.1918 41.4295 49.8749C41.4295 47.558 39.5512 45.6797 37.2343 45.6797C34.9173 45.6797 33.0391 47.558 33.0391 49.8749C33.0391 52.1918 34.9173 54.0701 37.2343 54.0701Z" fill="#65706C"/>
</g>
</g>
</g>
</g>
<g id="Clip path group_2">
<mask id="mask1_376_1429" style="mask-type:luminance" maskUnits="userSpaceOnUse" x="-1" y="-1" width="187" height="187">
<g id="clip0_1_933">
<path id="Vector_2" d="M185.461 -0.369141H-0.0859375V185.178H185.461V-0.369141Z" fill="white"/>
</g>
</mask>
<g mask="url(#mask1_376_1429)">
<g id="Blackboard">
<path id="BG_2" d="M185.461 -0.369141H-0.0859375V185.178H185.461V-0.369141Z" fill="#4A6D8B"/>
<g id="Group 11">
<path id="SHAPE 192" opacity="0.69" d="M138.59 55.4258H107.084C104.42 55.4258 102.26 53.266 102.26 50.6016C102.26 47.9373 104.42 45.7774 107.084 45.7774H117.734C120.406 45.7774 122.559 43.625 122.559 40.9531C122.559 38.2813 120.406 36.1289 117.734 36.1289H70.3457C67.6739 36.1289 65.5215 38.2813 65.5215 40.9531C65.5215 43.625 67.6739 45.7774 70.3457 45.7774H80.6251C83.2969 45.7774 85.4493 47.9297 85.4493 50.6016C85.4493 53.2735 83.2969 55.4258 80.6251 55.4258H47.5977C44.9258 55.4258 42.7734 57.5782 42.7734 60.25C42.7734 62.9219 44.9258 65.0743 47.5977 65.0743H60.7344C63.4063 65.0743 65.5586 67.2266 65.5586 69.8985C65.5586 72.5704 63.4063 74.7227 60.7344 74.7227H55.1865C52.5147 74.7227 50.3623 76.8751 50.3623 79.5469C50.3623 82.2188 52.5147 84.3712 55.1865 84.3712H73.4815V94.0196H59.3799C56.708 94.0196 54.5557 96.172 54.5557 98.8438C54.5557 101.516 56.708 103.668 59.3799 103.668H85.0967C87.7686 103.668 89.921 105.82 89.921 108.492C89.921 111.164 87.7686 113.317 85.0967 113.317H70.7168C68.045 113.317 65.8926 115.469 65.8926 118.141C65.8926 120.813 68.045 122.965 70.7168 122.965H125.75C128.422 122.965 130.574 120.813 130.574 118.141C130.574 115.469 128.422 113.317 125.75 113.317H111.927V103.668H116.306C118.978 103.668 121.13 101.516 121.13 98.8438C121.13 96.172 118.978 94.0196 116.306 94.0196H111.927V84.3712H130.222C132.894 84.3712 135.046 82.2188 135.046 79.5469C135.046 76.8751 132.894 74.7227 130.222 74.7227H122.559C119.894 74.7227 117.734 72.563 117.734 69.8985C117.734 67.2342 119.894 65.0743 122.559 65.0743H138.627C141.299 65.0743 143.451 62.9219 143.451 60.25C143.414 57.5967 141.262 55.4258 138.59 55.4258Z" fill="#395D77"/>
<path id="SHAPE 190" d="M95.6182 74.7227H85.8399C83.168 74.7227 81.0156 72.5703 81.0156 69.8984C81.0156 67.2266 83.168 65.0742 85.8399 65.0742H95.6182C98.2901 65.0742 100.442 67.2266 100.442 69.8984C100.442 72.5703 98.2901 74.7227 95.6182 74.7227Z" fill="#4A6D8B"/>
<path id="SHAPE 225" opacity="0.69" d="M130.762 103.668H137.479C140.15 103.668 142.303 101.516 142.303 98.8438C142.303 96.1719 140.15 94.0195 137.479 94.0195H130.762C128.09 94.0195 125.938 96.1719 125.938 98.8438C125.938 101.516 128.09 103.668 130.762 103.668Z" fill="#395D77"/>
<path id="SHAPE 4_2" opacity="0.69" d="M147.133 84.3711H144.832C142.16 84.3711 140.008 82.2188 140.008 79.5469C140.008 76.875 142.16 74.7227 144.832 74.7227H147.133C149.805 74.7227 151.957 76.875 151.957 79.5469C151.957 82.2188 149.805 84.3711 147.133 84.3711Z" fill="#395D77"/>
<path id="SHAPE 249" opacity="0.69" d="M50.4805 122.965H59.4981C62.1699 122.965 64.3223 120.813 64.3223 118.141C64.3223 115.469 62.1699 113.316 59.4981 113.316H50.4805C47.8086 113.316 45.6562 115.469 45.6562 118.141C45.6562 120.813 47.8086 122.965 50.4805 122.965Z" fill="#395D77"/>
<path id="SHAPE 220" opacity="0.69" d="M36.1524 65.0742C38.8242 65.0742 40.9766 62.9219 40.9766 60.25C40.9766 57.5781 38.8242 55.4258 36.1524 55.4258C33.4805 55.4258 31.3281 57.5781 31.3281 60.25C31.3281 62.9219 33.4805 65.0742 36.1524 65.0742Z" fill="#395D77"/>
</g>
<g id="Group 10">
<path id="SHAPE 226" opacity="0.5" d="M49.2227 93.5723H44.1758C41.5039 93.5723 39.3516 91.4199 39.3516 88.7481C39.3516 86.0762 41.5039 83.9238 44.1758 83.9238H49.2227C51.8945 83.9238 54.0469 86.0762 54.0469 88.7481C54.0469 91.4014 51.8945 93.5723 49.2227 93.5723Z" fill="#825D7E"/>
<path id="SHAPE 188" d="M121.112 94.0176H100.387C97.7148 94.0176 95.5625 91.8652 95.5625 89.1934C95.5625 86.5215 97.7148 84.3691 100.387 84.3691H121.112C123.784 84.3691 125.937 86.5215 125.937 89.1934C125.937 91.8652 123.784 94.0176 121.112 94.0176Z" fill="#4A6D8B"/>
<path id="SHAPE 82" d="M71.1983 83.4414H50.4727C47.8008 83.4414 45.6484 81.2891 45.6484 78.6172C45.6484 75.9453 47.8008 73.793 50.4727 73.793H71.1983C73.8702 73.793 76.0225 75.9453 76.0225 78.6172C76.0225 81.2891 73.8702 83.4414 71.1983 83.4414Z" fill="#684463"/>
<path id="SHAPE 224" d="M133.394 113.314H112.668C109.996 113.314 107.844 111.162 107.844 108.49C107.844 105.818 109.996 103.666 112.668 103.666H133.394C136.065 103.666 138.218 105.818 138.218 108.49C138.218 111.162 136.065 113.314 133.394 113.314Z" fill="#4A6D8B"/>
<path id="SHAPE 35_2" opacity="0.56" d="M164.713 132.018H20.6543C19.3184 132.018 18.2422 130.941 18.2422 129.605C18.2422 128.27 19.3184 127.193 20.6543 127.193H164.695C166.031 127.193 167.107 128.27 167.107 129.605C167.125 130.941 166.031 132.018 164.713 132.018Z" fill="#2D4659"/>
<path id="SHAPE 1_2" d="M84.4609 110.865H80.75V129.42H84.4609V110.865Z" fill="#8BBF98"/>
<path id="SHAPE 17_2" d="M86.6953 110.865H84.4688V129.42H86.6953V110.865Z" fill="#63916E"/>
<path id="SHAPE 21" d="M105.242 110.865H101.531V129.42H105.242V110.865Z" fill="#8BBF98"/>
<path id="SHAPE 16_2" d="M107.469 110.865H105.242V129.42H107.469V110.865Z" fill="#63916E"/>
<path id="SHAPE 26_2" d="M120.828 110.865H117.117V129.42H120.828V110.865Z" fill="#8BBF98"/>
<path id="SHAPE 19_2" d="M123.063 110.865H120.836V129.42H123.063V110.865Z" fill="#63916E"/>
<path id="SHAPE 87_2" d="M135.008 114.576H132.781V129.42H135.008V114.576Z" fill="#8BBF98"/>
<path id="SHAPE 84" d="M136.492 114.576H135.008V129.42H136.492V114.576Z" fill="#63916E"/>
<path id="SHAPE 34_2" d="M149.094 114.576H146.867V129.42H149.094V114.576Z" fill="#8BBF98"/>
<path id="SHAPE 31_2" d="M150.578 114.576H149.094V129.42H150.578V114.576Z" fill="#63916E"/>
<path id="SHAPE 20_2" d="M150.578 114.576H149.094V115.318H150.578V114.576Z" fill="#55845F"/>
<path id="SHAPE 50" d="M149.094 114.576H146.867V115.318H149.094V114.576Z" fill="#63916E"/>
<path id="SHAPE 94" d="M143.414 93.7949H141.188V129.42H143.414V93.7949Z" fill="#8BBF98"/>
<path id="SHAPE 91" d="M144.898 93.7949H143.414V129.42H144.898V93.7949Z" fill="#63916E"/>
<path id="SHAPE 5_2" d="M79.8945 101.217H75.5156V69.3027H79.8945C80.5068 69.3027 81.0078 69.8037 81.0078 70.416V100.104C81.0078 100.716 80.5254 101.217 79.8945 101.217Z" fill="#EF6562"/>
<path id="SHAPE 3" d="M78.5118 101.217H33.2383C32.626 101.217 32.125 100.716 32.125 100.104V70.416C32.125 69.8037 32.626 69.3027 33.2383 69.3027H78.5118C79.1241 69.3027 79.6251 69.8037 79.6251 70.416V100.104C79.6251 100.716 79.1241 101.217 78.5118 101.217Z" fill="#EC958B"/>
<path id="SHAPE 14_2" d="M77.3829 98.9787V71.5178L34.3359 71.5176V98.9787H77.3829Z" fill="#34515B"/>
<path id="SHAPE 12_2" d="M34.8926 98.9786V71.5176H34.3359V98.9786H34.8926Z" fill="#D84E4E"/>
<path id="SHAPE 18_2" d="M77.3926 71.5117H76.6875V98.9727H77.3926V71.5117Z" fill="#284249"/>
<path id="SHAPE 7_2" d="M59.7285 101.217H56.3516V129.42H59.7285V101.217Z" fill="#D84E4E"/>
<path id="SHAPE 6_2" d="M58.3223 101.217H54.9453V129.42H58.3223V101.217Z" fill="#EF6562"/>
<path id="SHAPE 24_2" d="M58.3223 101.217H54.9453V102.59H58.3223V101.217Z" fill="#D84E4E"/>
<path id="SHAPE 10_2" d="M69.7901 129.42H47.0234V127.193C47.0234 125.969 48.0254 124.967 49.25 124.967H67.5635C68.7881 124.967 69.7901 125.969 69.7901 127.193V129.42Z" fill="#EF6562"/>
<path id="SHAPE 8_2" d="M67.7276 129.42H44.9609V127.193C44.9609 125.969 45.9629 124.967 47.1875 124.967H65.501C66.7256 124.967 67.7276 125.969 67.7276 127.193V129.42Z" fill="#EC958B"/>
<path id="SHAPE 11_2" d="M105.242 107.32H80.75V110.864H105.242V107.32Z" fill="#8BBF98"/>
<path id="SHAPE 48_2" d="M123.055 107.32H105.242V110.864H123.055V107.32Z" fill="#63916E"/>
<path id="SHAPE 13_2" d="M103.389 104.854H79.4531V107.321H103.389V104.854Z" fill="#9FD6A3"/>
<path id="SHAPE 54" d="M105.242 107.32H80.75V108.063H105.242V107.32Z" fill="#63916E"/>
<path id="SHAPE 56" d="M124.84 104.854H103.391V107.321H124.84V104.854Z" fill="#83B78D"/>
<path id="SHAPE 25_2" d="M149.539 111.607H131.727V114.576H149.539V111.607Z" fill="#81B58C"/>
<path id="SHAPE 97_2" d="M159.93 111.607H149.539V114.576H159.93V111.607Z" fill="#63916E"/>
<path id="SHAPE 29_2" d="M155.289 95.6133H143.414V102.293H155.289V95.6133Z" fill="#81B58C"/>
<path id="SHAPE 53" d="M143.414 114.576H141.188V115.318H143.414V114.576Z" fill="#63916E"/>
<path id="SHAPE 116" d="M135.008 114.576H132.781V115.318H135.008V114.576Z" fill="#63916E"/>
<path id="SHAPE 120" d="M136.492 114.576H135.008V115.318H136.492V114.576Z" fill="#55845F"/>
<path id="SHAPE 110" d="M144.898 114.576H143.414V115.318H144.898V114.576Z" fill="#55845F"/>
<path id="SHAPE 114_2" d="M123.055 107.32H105.242V108.063H123.055V107.32Z" fill="#577F5D"/>
<g id="SHAPE 44">
<path id="SHAPE 70_2" d="M112.119 83.752L110.391 83.9846L112.49 99.5789L114.218 99.3463L112.119 83.752Z" fill="#DD5858"/>
<path id="SHAPE 72_2" d="M112.277 84.1699L110.328 84.4323L110.88 88.5332L112.829 88.2709L112.277 84.1699Z" fill="#EF6562"/>
<path id="SHAPE 123_2" d="M110.368 84.7773L110 84.8269L110.035 85.0842L110.402 85.0347L110.368 84.7773Z" fill="#E8E8E8"/>
<path id="SHAPE 126_2" d="M110.532 88.0059L110.421 88.0244L110.031 85.1113L110.291 85.0742L110.662 87.8389C110.681 87.8945 110.625 87.9873 110.532 88.0059Z" fill="#E8E8E8"/>
<path id="SHAPE 125" d="M112.721 88.2656L110.992 88.4983L111.019 88.7005L112.748 88.4679L112.721 88.2656Z" fill="#D35050"/>
</g>
<g id="SHAPE 76_2">
<path id="SHAPE 60" d="M108.215 88.6184L106.712 89.0823L106.026 86.8743C105.933 86.5774 106.1 86.262 106.397 86.1692L106.842 86.0393C107.139 85.9465 107.454 86.1135 107.547 86.4104L108.215 88.6184Z" fill="#E8E8E8"/>
<path id="SHAPE 69_2" d="M108.583 88.5039L106.352 89.2019L107.559 93.0624L109.791 92.3644L108.583 88.5039Z" fill="#35393D"/>
<path id="SHAPE 129_2" d="M107.343 92.5342L109.161 90.252L108.771 89.0273L106.953 91.3096L107.343 92.5342Z" fill="#808284"/>
<path id="SHAPE 62" d="M109.683 92.3789L107.664 93.0105L110.096 100.785L112.115 100.153L109.683 92.3789Z" fill="#3B4044"/>
<path id="SHAPE 74_2" opacity="0.66" d="M108.681 92.7012L108.008 92.9116L110.44 100.686L111.113 100.475L108.681 92.7012Z" fill="#6D6F70"/>
</g>
<g id="SHAPE 134">
<path id="SHAPE 169" d="M117.523 85.7051L116.8 85.5938L115.891 87.2266L117.932 87.5234L117.523 85.7051Z" fill="#C5E1DF"/>
<path id="SHAPE 166" d="M115.207 100.809L114.669 100.734C114.261 100.679 113.983 100.289 114.038 99.8809L115.912 87.2266L117.935 87.5234L116.061 100.178C116.005 100.586 115.615 100.883 115.207 100.809Z" fill="#B3DBAD"/>
<path id="SHAPE 163" d="M114.445 100.698L114.296 100.68C114.092 100.643 113.944 100.457 113.963 100.234L115.892 87.209L116.412 87.2832L114.445 100.698Z" fill="#68A575"/>
<path id="SHAPE 156" d="M115.562 100.866L115.414 100.848L117.399 87.4512L117.919 87.5254L115.989 100.551C115.971 100.755 115.785 100.903 115.562 100.866Z" fill="#68A575"/>
<path id="SHAPE 146" d="M117.523 85.7059L117.356 84.9637C117.338 84.8524 117.208 84.8338 117.152 84.9266L116.781 85.5946L117.523 85.7059Z" fill="#6F5A66"/>
<path id="SHAPE 141_2" d="M117.524 85.7061L117.172 85.6504L117.395 87.4502L117.933 87.5244L117.524 85.7061Z" fill="#A5CECA"/>
</g>
<path id="SHAPE 22_2" d="M117.531 104.854H107.141V94.166C107.141 93.9619 107.308 93.7949 107.512 93.7949H117.16C117.364 93.7949 117.531 93.9619 117.531 94.166V104.854Z" fill="#F2E07C"/>
<path id="SHAPE 150_2" d="M116.047 93.7949V104.854H117.531V94.166C117.531 93.9619 117.364 93.7949 117.16 93.7949H116.047Z" fill="#DFBB4D"/>
<path id="SHAPE 144_2" d="M110.38 99.3242H104.609V104.854H110.38V99.3242Z" fill="#6E7EE0"/>
<path id="SHAPE 140" d="M105.24 99.3242H104.609V104.854H105.24V99.3242Z" fill="#7A8CE2"/>
<path id="SHAPE 147_2" d="M109.539 104.84H110.374V99.3105H109.539V104.84Z" fill="#6373C1"/>
<path id="SHAPE 155" d="M110.383 104.84H110.902V99.3105H110.383V104.84Z" fill="#DFBB4D"/>
<path id="SHAPE 142_2" d="M91.7324 100.494H87.3906V104.836H91.7324V100.494Z" fill="#EC958B"/>
<path id="SHAPE 154" d="M91.7324 100.494H87.3906V100.698H91.7324V100.494Z" fill="#EF6562"/>
<path id="SHAPE 152" d="M94.043 100.494H91.7422V104.836H94.043V100.494Z" fill="#EF6562"/>
<g id="SHAPE 148_2">
<path id="Vector_3" d="M90.0293 103.296H89.3057L89.1943 103.648H88.8047L89.4541 101.83H89.8809L90.5303 103.648H90.1406L90.0293 103.296ZM89.6582 102.257L89.3984 103.018H89.918L89.6582 102.257Z" fill="white"/>
</g>
<path id="SHAPE 186" d="M97.8965 100.494H93.5547V104.836H97.8965V100.494Z" fill="#E8B58B"/>
<path id="SHAPE 158" d="M100.191 100.494H97.8906V104.836H100.191V100.494Z" fill="#E09D6C"/>
<g id="SHAPE 157">
<path id="Vector_2_2" d="M95.7441 101.83C96.1895 101.83 96.3936 102.09 96.3936 102.387C96.3936 102.609 96.2637 102.832 95.9853 102.906L96.4121 103.648H95.9853L95.5771 102.943H95.4102V103.648H95.0391V101.83H95.7441ZM95.7441 102.127H95.4473V102.665H95.7441C95.9482 102.665 96.041 102.554 96.041 102.387C96.0225 102.238 95.9297 102.127 95.7441 102.127Z" fill="white"/>
</g>
<path id="SHAPE 193" d="M90.5918 96.1523H86.25V100.494H90.5918V96.1523Z" fill="#1BB1B2"/>
<path id="SHAPE 181" d="M92.8867 96.1523H90.5859V100.494H92.8867V96.1523Z" fill="#19A5A1"/>
<g id="SHAPE 159">
<path id="Vector_3_2" d="M89.0088 97.4883H89.3984L88.7305 99.3066H88.2852L87.6172 97.4883H88.0068L88.5078 98.9355L89.0088 97.4883Z" fill="white"/>
</g>
<path id="SHAPE 47" d="M34.6445 128.27C32.3252 129.958 29.0781 129.457 27.3896 127.138C25.7011 124.818 26.2021 121.571 28.5215 119.883L34.6445 128.27Z" fill="#EF6562"/>
<path id="SHAPE 33_2" d="M28.5234 119.882C30.8428 118.193 34.0899 118.694 35.7783 121.014C37.4668 123.333 36.9658 126.58 34.6465 128.269L28.5234 119.882Z" fill="#F2E07C"/>
<path id="SHAPE 81" opacity="0.25" d="M32.3662 118.936C34.333 119.678 35.7246 121.57 35.7246 123.797C35.7246 126.673 33.4053 128.992 30.5293 128.992C30.2695 128.992 30.0098 128.974 29.75 128.937C30.3252 129.159 30.9375 129.271 31.5869 129.271C34.4629 129.271 36.7822 126.951 36.7822 124.075C36.7822 121.459 34.8711 119.307 32.3662 118.936Z" fill="#A59A63"/>
<g id="SHAPE 64">
<path id="SHAPE 281" d="M51.6613 87.281C51.7726 87.0769 51.8654 86.8728 51.9581 86.6687C52.0509 86.4646 52.1437 86.2419 52.2179 86.0193C52.3849 85.5925 52.5333 85.1472 52.6632 84.7019C52.7003 84.5906 52.7374 84.4792 52.756 84.3679L52.8488 84.0339C52.9044 83.8113 52.9601 83.5886 52.9972 83.3474C53.0529 83.1247 53.09 82.8835 53.1271 82.6609C53.1642 82.4382 53.1827 82.197 53.2199 81.9743L53.2384 81.8259L53.3312 81.7517C53.424 81.6589 53.5724 81.5661 53.7394 81.5661C53.9064 81.5476 54.0363 81.6032 54.129 81.6589C54.3146 81.7702 54.4445 81.8816 54.5372 82.0115C54.7413 82.2527 54.8898 82.4939 55.0382 82.7536C55.3165 83.2546 55.5392 83.7556 55.7619 84.2751C55.966 84.7947 56.1701 85.3142 56.337 85.8337C56.504 86.3533 56.671 86.8913 56.7824 87.448C56.8009 87.5408 56.7452 87.6335 56.6525 87.6521C56.5597 87.6706 56.4669 87.615 56.4484 87.5222C56.2999 87.0027 56.1144 86.5017 55.9103 85.9822C55.7062 85.4812 55.4835 84.9802 55.2609 84.4978C55.0197 84.0154 54.7785 83.5329 54.4816 83.0876C54.3331 82.865 54.1847 82.6609 54.0177 82.4939C53.9435 82.4197 53.8507 82.3454 53.7951 82.3269C53.7579 82.3269 53.7765 82.3083 53.7951 82.3269C53.8136 82.3269 53.8507 82.3083 53.8322 82.3083L53.9435 82.0857C53.9064 82.3269 53.8878 82.5681 53.8507 82.8093C53.8136 83.0505 53.7765 83.2917 53.7208 83.5329C53.6837 83.7742 53.6095 84.0154 53.5538 84.238L53.4611 84.5906C53.424 84.7019 53.4054 84.8318 53.3683 84.9431C53.2384 85.407 53.0714 85.8708 52.9044 86.3161C52.8117 86.5388 52.7189 86.7615 52.6261 86.9841C52.5333 87.2068 52.422 87.4294 52.3107 87.6521C52.2179 87.8376 51.9952 87.9119 51.8097 87.8005C51.6242 87.6892 51.5685 87.4665 51.6613 87.281Z" fill="#D1D1D1"/>
</g>
<g id="SHAPE 68_2">
<path id="SHAPE 277" d="M51.9371 84.8709L56.5758 84.3885C56.7428 84.3699 56.8912 84.4998 56.9098 84.6668C56.9283 84.8338 56.817 84.9822 56.65 85.0008L52.0113 85.6131C51.8072 85.6317 51.6217 85.5018 51.6031 85.2977C51.5846 85.0936 51.733 84.908 51.9371 84.8709Z" fill="#D1D1D1"/>
</g>
<path id="SHAPE 229" d="M153.158 99.3613H150.932C150.616 99.3613 150.375 99.1201 150.375 98.8047C150.375 98.4893 150.616 98.248 150.932 98.248H153.158C153.474 98.248 153.715 98.4893 153.715 98.8047C153.715 99.1016 153.474 99.3613 153.158 99.3613Z" fill="#8BBF98"/>
<path id="SHAPE 228" opacity="0.74" d="M151.393 101.402H144.713C144.397 101.402 144.156 101.161 144.156 100.846C144.156 100.53 144.397 100.289 144.713 100.289H151.393C151.708 100.289 151.949 100.53 151.949 100.846C151.949 101.161 151.708 101.402 151.393 101.402Z" fill="#8BBF98"/>
<path id="SHAPE 231" opacity="0.23" d="M52.1445 127.193H47.877C47.5615 127.193 47.3203 126.952 47.3203 126.637C47.3203 126.321 47.5615 126.08 47.877 126.08H52.1445C52.46 126.08 52.7012 126.321 52.7012 126.637C52.7012 126.934 52.46 127.193 52.1445 127.193Z" fill="#EF6562"/>
<path id="SHAPE 232" opacity="0.23" d="M56.3545 127.193H55.1113C54.7959 127.193 54.5547 126.952 54.5547 126.637C54.5547 126.321 54.7959 126.08 55.1113 126.08H56.3545C56.6699 126.08 56.9111 126.321 56.9111 126.637C56.9111 126.934 56.6699 127.193 56.3545 127.193Z" fill="#EF6562"/>
<path id="SHAPE 234" opacity="0.23" d="M65.5918 128.584H60.6191C60.3037 128.584 60.0625 128.343 60.0625 128.027C60.0625 127.712 60.3037 127.471 60.6191 127.471H65.5918C65.9072 127.471 66.1484 127.712 66.1484 128.027C66.1484 128.324 65.9072 128.584 65.5918 128.584Z" fill="#EF6562"/>
<path id="SHAPE 28_2" opacity="0.23" d="M63.5918 128.584H62.627C62.3115 128.584 62.0703 128.343 62.0703 128.027C62.0703 127.712 62.3115 127.471 62.627 127.471H63.5918C63.9072 127.471 64.1484 127.712 64.1484 128.027C64.1484 128.324 63.9072 128.584 63.5918 128.584Z" fill="#EF6562"/>
<path id="SHAPE 227" d="M147.865 99.3613H146.9C146.585 99.3613 146.344 99.1201 146.344 98.8047C146.344 98.4893 146.585 98.248 146.9 98.248H147.865C148.181 98.248 148.422 98.4893 148.422 98.8047C148.422 99.1016 148.181 99.3613 147.865 99.3613Z" fill="#8BBF98"/>
<path id="SHAPE 218" d="M149.555 97.6367H144.916C144.601 97.6367 144.359 97.3955 144.359 97.0801C144.359 96.7646 144.601 96.5234 144.916 96.5234H149.555C149.87 96.5234 150.111 96.7646 150.111 97.0801C150.111 97.377 149.87 97.6367 149.555 97.6367Z" fill="#8BBF98"/>
<path id="SHAPE 248" opacity="0.18" d="M87.5029 109.086H83.6436C83.4766 109.086 83.3281 108.956 83.3281 108.771C83.3281 108.604 83.458 108.455 83.6436 108.455H87.5029C87.6699 108.455 87.8184 108.585 87.8184 108.771C87.7998 108.956 87.6699 109.086 87.5029 109.086Z" fill="#63916E"/>
<path id="SHAPE 254" opacity="0.18" d="M90.4531 109.086H88.6904C88.5234 109.086 88.375 108.956 88.375 108.771C88.375 108.604 88.5049 108.455 88.6904 108.455H90.4531C90.6201 108.455 90.7686 108.585 90.7686 108.771C90.75 108.956 90.6201 109.086 90.4531 109.086Z" fill="#63916E"/>
<path id="SHAPE 255" opacity="0.18" d="M92.8535 110.16H89.0498C88.8828 110.16 88.7344 110.03 88.7344 109.845C88.7344 109.678 88.8643 109.529 89.0498 109.529H92.8535C93.0205 109.529 93.169 109.659 93.169 109.845C93.1504 110.012 93.0205 110.16 92.8535 110.16Z" fill="#63916E"/>
<path id="SHAPE 268" opacity="0.18" d="M99.627 110.16H98.4951C98.3281 110.16 98.1797 110.03 98.1797 109.845C98.1797 109.678 98.3096 109.529 98.4951 109.529H99.627C99.794 109.529 99.9424 109.659 99.9424 109.845C99.9238 110.012 99.794 110.16 99.627 110.16Z" fill="#63916E"/>
<path id="SHAPE 256" opacity="0.18" d="M100.76 109.27H99.6279C99.4609 109.27 99.3125 109.14 99.3125 108.954C99.3125 108.787 99.4424 108.639 99.6279 108.639H100.76C100.927 108.639 101.075 108.769 101.075 108.954C101.075 109.121 100.945 109.27 100.76 109.27Z" fill="#63916E"/>
<path id="SHAPE 282" opacity="0.26" d="M112.652 110.16H108.292C108.125 110.16 107.977 110.03 107.977 109.845C107.977 109.678 108.106 109.529 108.292 109.529H112.652C112.819 109.529 112.968 109.659 112.968 109.845C112.949 110.012 112.819 110.16 112.652 110.16Z" fill="#8BBF98"/>
<path id="SHAPE 279" opacity="0.26" d="M118.869 110.16H117.737C117.57 110.16 117.422 110.03 117.422 109.845C117.422 109.678 117.552 109.529 117.737 109.529H118.869C119.036 109.529 119.185 109.659 119.185 109.845C119.166 110.012 119.036 110.16 118.869 110.16Z" fill="#8BBF98"/>
<path id="SHAPE 271" opacity="0.26" d="M113.843 109.102H111.394C111.227 109.102 111.078 108.972 111.078 108.786C111.078 108.619 111.208 108.471 111.394 108.471H113.843C114.01 108.471 114.158 108.601 114.158 108.786C114.158 108.972 114.028 109.102 113.843 109.102Z" fill="#8BBF98"/>
</g>
</g>
</g>
</g>
</g>
</g>
<defs>
<clipPath id="clip0_376_1429">
<rect width="152" height="152" rx="76" fill="white"/>
</clipPath>
</defs>
</svg>
